<svg width="110" height="30" viewBox="0 0 110 30" fill="none" xmlns="http://www.w3.org/2000/svg">
	<g clip-path="url(#clip0_189_1046)">
		<path d="M25.4549 26.2583L25.5301 26.1814L25.4549 26.2583ZM25.4404 26.2583L25.425 26.2732L25.4173 26.2811L25.4096 26.2889C25.4231 26.2828 25.434 26.272 25.4404 26.2583ZM25.3797 26.3196C25.3951 26.3117 25.3951 26.3047 25.4096 26.2889C25.407 26.2958 25.4031 26.302 25.3981 26.3072C25.3931 26.3125 25.3871 26.3167 25.3805 26.3196H25.3797ZM25.1165 25.5044C25.1096 25.5044 25.1096 25.5123 25.1165 25.5044V25.5044Z" fill="white" />
		<path d="M17.847 7.8717C17.7419 7.8717 17.6368 7.8717 17.5308 7.87958H18.253C18.1162 7.8787 17.9898 7.8717 17.847 7.8717ZM18.3282 7.88745C18.3484 7.88618 18.3687 7.88885 18.388 7.89532H18.4487C18.4089 7.88873 18.3685 7.8858 18.3282 7.88657V7.88745ZM9.38867 9.7338C9.44935 9.64633 9.50148 9.55887 9.5596 9.46441C9.50148 9.54838 9.44166 9.64109 9.38867 9.73292V9.7338Z" fill="white" />
		<path d="M14.4941 4.69412C14.6446 4.6014 14.8027 4.50957 14.9531 4.42473C14.795 4.50957 14.6446 4.6014 14.4941 4.69412ZM15.5847 4.08187C15.7129 4.02065 15.8479 3.95068 15.9829 3.88945C15.8479 3.95505 15.724 4.01715 15.5847 4.08625V4.08187ZM23.5764 3.30432C23.6815 3.32006 23.7798 3.32794 23.8772 3.33581C23.7798 3.33231 23.6815 3.31657 23.5764 3.30869V3.30432Z" fill="white" />
		<path d="M25.0579 9.89478C25.0503 9.88691 25.0426 9.88691 25.0426 9.87904C24.9904 9.83268 24.9374 9.79158 24.8853 9.73298L24.8776 9.72511C24.8622 9.71024 24.8545 9.70236 24.84 9.68662C24.8357 9.68274 24.8303 9.6803 24.8246 9.67962C24.8178 9.67962 24.8178 9.67175 24.8101 9.67175C24.8998 9.74872 24.981 9.82569 25.0733 9.90266C25.0656 9.90266 25.0579 9.90266 25.0579 9.89478ZM24.9075 10.7948C24.8622 10.7484 24.8221 10.7178 24.787 10.6793L24.7836 10.6706C24.7628 10.648 24.7399 10.6275 24.7152 10.6094L24.7084 10.6015C24.6708 10.5709 24.6229 10.5245 24.5879 10.4939L24.9297 10.8166C24.9229 10.8105 24.9152 10.8027 24.9075 10.7948ZM24.9229 10.8175L24.9297 10.8254C24.9297 10.8175 24.9297 10.8175 24.9229 10.8175ZM24.9827 10.8717L24.9374 10.8254L24.9297 10.8175C24.9454 10.8376 24.9632 10.8558 24.9827 10.8717ZM25.0682 10.9592L25.1058 10.9977C25.0879 10.9793 25.0802 10.9636 25.0656 10.9566L25.0682 10.9592ZM25.1058 10.9977L25.1511 11.0432C25.181 11.0747 25.2109 11.1131 25.2408 11.1438C25.2542 11.1586 25.2694 11.1716 25.2861 11.1822C25.2237 11.1079 25.1631 11.0563 25.1032 10.9951L25.1058 10.9977ZM25.0605 9.89741C25.0528 9.88954 25.0451 9.88954 25.0451 9.88166C24.993 9.83531 24.94 9.7942 24.8879 9.7356L24.8802 9.72773C24.8648 9.71286 24.8571 9.70499 24.8426 9.68925C24.8383 9.68536 24.8329 9.68292 24.8272 9.68225C24.8204 9.68225 24.8204 9.67438 24.8127 9.67438C24.9024 9.75134 24.9836 9.82831 25.0759 9.90528C25.0656 9.90266 25.0579 9.90266 25.0579 9.89478L25.0605 9.89741ZM25.0605 9.89741C25.0528 9.88954 25.0451 9.88954 25.0451 9.88166C24.993 9.83531 24.94 9.7942 24.8879 9.7356L24.8802 9.72773C24.8648 9.71286 24.8571 9.70499 24.8426 9.68925C24.8383 9.68536 24.8329 9.68292 24.8272 9.68225C24.8204 9.68225 24.8204 9.67438 24.8127 9.67438C24.9024 9.75134 24.9836 9.82831 25.0759 9.90528C25.0656 9.90266 25.0579 9.90266 25.0579 9.89478L25.0605 9.89741ZM25.0605 9.89741C25.0528 9.88954 25.0451 9.88954 25.0451 9.88166C24.993 9.83531 24.94 9.7942 24.8879 9.7356L24.8802 9.72773C24.8648 9.71286 24.8571 9.70499 24.8426 9.68925C24.8383 9.68536 24.8329 9.68292 24.8272 9.68225C24.8204 9.68225 24.8204 9.67438 24.8127 9.67438C24.9024 9.75134 24.9836 9.82831 25.0759 9.90528C25.0656 9.90266 25.0579 9.90266 25.0579 9.89478L25.0605 9.89741ZM25.0605 9.89741C25.0528 9.88954 25.0451 9.88954 25.0451 9.88166C24.993 9.83531 24.94 9.7942 24.8879 9.7356L24.8802 9.72773C24.8648 9.71286 24.8571 9.70499 24.8426 9.68925C24.8383 9.68536 24.8329 9.68292 24.8272 9.68225C24.8204 9.68225 24.8204 9.67438 24.8127 9.67438C24.9024 9.75134 24.9836 9.82831 25.0759 9.90528C25.0656 9.90266 25.0579 9.90266 25.0579 9.89478L25.0605 9.89741Z" fill="white" />
		<path d="M24.8846 9.74078C24.9367 9.78714 24.9897 9.82825 25.0418 9.88685L25.0495 9.89472C24.9974 9.84049 24.9367 9.78714 24.8846 9.74078ZM24.8846 9.74078C24.9367 9.78714 24.9897 9.82825 25.0418 9.88685L25.0495 9.89472C24.9974 9.84049 24.9367 9.78714 24.8846 9.74078ZM24.8846 9.74078C24.9367 9.78714 24.9897 9.82825 25.0418 9.88685L25.0495 9.89472C24.9974 9.84049 24.9367 9.78714 24.8846 9.74078ZM25.0555 9.89472C24.9957 9.84049 24.935 9.78714 24.8846 9.74078L24.8769 9.73291C24.8615 9.71804 24.8393 9.7023 24.8239 9.68656C24.817 9.68656 24.817 9.67956 24.8094 9.67956C24.8991 9.75565 24.9803 9.83262 25.0726 9.90959C25.0649 9.90259 25.0572 9.90259 25.0572 9.89472H25.0555ZM23.8769 3.3402C23.7795 3.33233 23.6812 3.31659 23.5761 3.30872C23.6812 3.32358 23.7795 3.33233 23.8769 3.3402ZM17.8475 7.87169C17.7423 7.87169 17.6372 7.87169 17.5312 7.87956C17.6372 7.87869 17.7423 7.87169 17.8475 7.87169ZM24.8846 9.74166C24.9367 9.78801 24.9897 9.82912 25.0418 9.88772L25.0495 9.8956C24.9974 9.84049 24.9367 9.78714 24.8846 9.74078V9.74166ZM24.8846 9.74166C24.9367 9.78801 24.9897 9.82912 25.0418 9.88772L25.0495 9.8956C24.9974 9.84049 24.9367 9.78714 24.8846 9.74078V9.74166ZM24.8846 9.74166C24.9367 9.78801 24.9897 9.82912 25.0418 9.88772L25.0495 9.8956C24.9974 9.84049 24.9367 9.78714 24.8846 9.74078V9.74166Z" fill="white" />
		<path d="M29.3118 15.0026C29.3115 16.0748 29.2006 17.144 28.981 18.1924C28.9058 18.5615 28.8152 18.9227 28.7101 19.2848C28.7403 18.9542 28.7554 18.6157 28.7554 18.2693C28.7569 16.6919 28.43 15.1322 27.7963 13.6941C27.1626 12.2561 26.2368 10.9728 25.0805 9.92969L25.0737 9.92182L25.066 9.91395C25.0583 9.90695 25.0583 9.90695 25.0506 9.90695L25.0429 9.89908L24.8779 9.75302L24.8703 9.74514C24.8549 9.7294 24.848 9.72153 24.8326 9.70666C24.8287 9.70253 24.8237 9.69977 24.8181 9.69879C24.8104 9.69879 24.8104 9.69092 24.8027 9.69092C24.8104 9.69879 24.825 9.69879 24.8326 9.70666C25.1489 9.88159 25.4642 10.0758 25.7651 10.276C25.8249 10.3145 25.8779 10.353 25.936 10.3915C25.9437 10.3985 25.9591 10.4064 25.9659 10.4142C25.9967 10.437 26.0343 10.4606 26.0642 10.4833C26.1163 10.514 26.1616 10.5524 26.2146 10.5909C26.2522 10.6224 26.2898 10.6451 26.3274 10.6784C26.3872 10.7247 26.4471 10.7658 26.5077 10.8096C26.5684 10.8533 26.6428 10.9172 26.7103 10.9635C26.7855 11.0247 26.8684 11.086 26.9436 11.1481L27.1692 11.3326L27.2897 11.4323C27.3216 11.4537 27.3504 11.4796 27.3752 11.5093C27.3983 11.525 27.4128 11.5478 27.4359 11.5635C27.5564 11.6632 27.6683 11.7708 27.7777 11.8784C27.8149 11.9098 27.8503 11.9433 27.8837 11.979C27.9213 12.0174 27.9589 12.0481 27.9965 12.0865C28.0187 12.1093 28.0409 12.125 28.064 12.1478C28.1162 12.1941 28.1614 12.2484 28.2144 12.2938C28.245 12.3226 28.2736 12.3536 28.2999 12.3865C28.3333 12.4244 28.3686 12.4603 28.4059 12.4941L28.4127 12.502L28.4734 12.5632C28.5589 12.6507 28.6383 12.7381 28.7135 12.8326C28.7156 12.8326 28.7175 12.8334 28.719 12.8349C28.7204 12.8364 28.7212 12.8384 28.7212 12.8405L28.8922 13.0399C28.9451 13.102 28.9981 13.1632 29.0503 13.2253C29.1024 13.2874 29.1554 13.3478 29.2007 13.4099C29.2084 13.4169 29.2161 13.4326 29.2306 13.4405V13.4484C29.2878 13.9643 29.3149 14.4833 29.3118 15.0026Z" fill="white" />
		<path d="M29.0265 12.0332L29.0035 12.0105C28.8838 11.8793 28.7633 11.756 28.6351 11.6335L28.583 11.5793C28.5223 11.5181 28.4625 11.456 28.4027 11.4044C28.2522 11.2583 28.0941 11.1122 27.936 10.9732C27.8506 10.9041 27.7779 10.835 27.6959 10.7659C27.6284 10.7038 27.56 10.6504 27.4925 10.5962C27.3873 10.5087 27.2822 10.4213 27.1694 10.3338C27.1019 10.2805 27.0267 10.2262 26.9592 10.172C26.8737 10.1108 26.8011 10.0496 26.7182 9.99709C26.7097 9.98766 26.6995 9.97994 26.6883 9.97435C26.6701 9.95876 26.65 9.9458 26.6284 9.93586C26.5678 9.89738 26.5156 9.8484 26.4575 9.81254C26.443 9.80467 26.4353 9.7968 26.4199 9.7898C26.3447 9.73557 26.2618 9.68222 26.1797 9.62799C24.9068 8.78855 23.5203 8.14495 22.0647 7.71779C22.0154 7.70177 21.9651 7.68892 21.9142 7.6793L21.892 7.67143C21.8467 7.65569 21.8014 7.64782 21.7561 7.63295C21.6433 7.60233 21.5237 7.57085 21.3955 7.54024C21.3733 7.53236 21.3502 7.53236 21.328 7.52537H21.3126C21.2271 7.50175 21.1476 7.48688 21.0647 7.47114L20.8511 7.42478C20.7836 7.40991 20.7229 7.40204 20.6554 7.3863H20.6477C20.6436 7.38683 20.6395 7.38639 20.6357 7.38503C20.6318 7.38366 20.6283 7.3814 20.6255 7.37843L20.54 7.36356C20.4947 7.35569 20.4545 7.34782 20.4126 7.34082L20.2622 7.3172C20.2225 7.30884 20.1822 7.30386 20.1417 7.30233C20.1041 7.29446 20.0665 7.29446 20.0289 7.28659H20.0212C19.9836 7.27872 19.9537 7.27872 19.9161 7.27085C19.9057 7.27122 19.8954 7.26881 19.8862 7.26385C19.811 7.25598 19.7358 7.24024 19.6683 7.23236C19.6436 7.22691 19.6183 7.22456 19.5931 7.22537L19.4503 7.20962C19.4349 7.20962 19.4196 7.20175 19.405 7.20175L19.164 7.17901L19.0786 7.17114H19.0709C19.0179 7.16327 18.9581 7.16327 18.9051 7.1554C18.8521 7.14752 18.8076 7.1484 18.7623 7.1484C18.6769 7.14053 18.5914 7.14053 18.4991 7.13266H18.4914C18.2735 7.11691 18.0556 7.10992 17.8376 7.10992C16.2293 7.10965 14.6409 7.47372 13.1863 8.17598C11.7318 8.87824 10.4471 9.90129 9.42456 11.1717C9.41773 11.1796 9.41004 11.1945 9.40234 11.2023C9.41773 11.1639 9.43995 11.1332 9.45533 11.0948C9.5408 10.9329 9.62626 10.7711 9.71856 10.6181C9.81086 10.465 9.90573 10.3023 10.004 10.1484C11.6125 7.60008 13.9328 5.60581 16.6634 4.42478C16.7685 4.37843 16.8736 4.33732 16.9787 4.29359C17.2949 4.17114 17.6103 4.05569 17.941 3.94373C19.3648 3.4894 20.8476 3.25879 22.339 3.25977C22.5646 3.25977 22.7902 3.26677 23.0159 3.27464C23.061 3.27308 23.1062 3.27571 23.1509 3.28251C23.2415 3.29038 23.3321 3.29038 23.4218 3.29825C23.4748 3.2993 23.5277 3.30427 23.5799 3.31312C23.6774 3.32099 23.7825 3.32886 23.8808 3.34373C24.2769 3.67292 24.6557 4.02326 25.0157 4.3933C27.0625 6.47638 28.4575 9.13552 29.0231 12.0324L29.0265 12.0332Z" fill="white" />
		<path d="M6.96091 17.6185V17.5958C6.96091 17.5337 6.9686 17.4646 6.9686 17.4034C6.9686 17.3719 6.97629 17.3343 6.97629 17.2958C6.97514 17.2418 6.97743 17.1877 6.98313 17.134C6.99082 17.0649 6.99082 17.0028 6.99852 16.9337C7.00621 16.8804 7.00621 16.8261 7.0139 16.7719C7.02159 16.7177 7.02074 16.6722 7.02843 16.618C7.03612 16.611 7.03612 16.5952 7.03612 16.5795C7.04381 16.5183 7.0515 16.457 7.05834 16.3949C7.05965 16.341 7.06479 16.2872 7.07372 16.234C7.07372 16.2183 7.08141 16.1955 7.08141 16.1798V16.157C7.08911 16.0879 7.09594 16.0337 7.10364 15.9725C7.12671 15.7976 7.16432 15.6025 7.20192 15.3725C7.23183 15.2107 7.25405 15.0795 7.28738 14.9492C7.32499 14.7646 7.36259 14.5801 7.40789 14.4025C7.42327 14.3255 7.44549 14.2407 7.46771 14.1646C7.48993 14.0885 7.50532 14.0107 7.52839 13.9337C7.5583 13.841 7.58052 13.7492 7.61385 13.6565C7.6583 13.5104 7.69932 13.3565 7.75658 13.2104C7.85401 12.9104 7.95913 12.6183 8.07963 12.3253C8.15484 12.1328 8.23774 11.9404 8.32064 11.7559C8.40354 11.5713 8.48559 11.3868 8.57703 11.2022C8.63686 11.0789 8.70437 10.9565 8.76505 10.8331C8.87017 10.625 8.98299 10.4177 9.10691 10.2209C9.1599 10.1439 9.20519 10.0591 9.25732 9.97511C9.29493 9.91301 9.33253 9.85966 9.37014 9.80019L9.41543 9.73109C9.47526 9.64363 9.52825 9.55616 9.58636 9.4617C9.64448 9.36724 9.70687 9.28678 9.76669 9.19931C10.6109 7.97248 11.6209 6.87438 12.7665 5.9378C13.2032 5.58794 13.6613 5.25296 14.1279 4.94509C14.2134 4.89173 14.2852 4.84538 14.3681 4.79115C14.4134 4.76054 14.4663 4.72993 14.5185 4.70369C14.6689 4.61098 14.8193 4.51914 14.9774 4.4343C15.0296 4.40369 15.0825 4.38007 15.1347 4.34684C15.2928 4.25937 15.4509 4.17803 15.609 4.10106C15.7363 4.03197 15.8722 3.96987 16.0073 3.90864C16.1423 3.84742 16.2782 3.78532 16.4132 3.7241C16.4653 3.70048 16.526 3.67774 16.5782 3.655C16.691 3.60864 16.7969 3.56754 16.9089 3.52381C17.1875 3.41623 17.4653 3.31652 17.7516 3.22381C19.3776 2.70082 21.0774 2.45902 22.7811 2.50835C19.8716 0.525494 16.3655 -0.328098 12.8951 0.101537C9.42482 0.531172 6.21873 2.21575 3.85514 4.85144C1.49154 7.48712 0.126037 10.9004 0.00490438 14.4757C-0.116229 18.051 1.01499 21.5528 3.19452 24.3497C3.53552 24.7875 3.89927 25.2062 4.28418 25.604C6.0192 27.3792 8.16166 28.6805 10.5154 29.3889C12.8691 30.0973 15.3589 30.1901 17.7567 29.6588C18.1374 29.5811 18.514 29.4833 18.8848 29.3658C18.5994 29.3894 18.3131 29.4043 18.0302 29.4121C18.0109 29.4186 17.9906 29.4213 17.9704 29.42H17.6841C17.5986 29.42 17.5131 29.42 17.4208 29.4121C17.3764 29.4121 17.3311 29.4043 17.2858 29.4043C17.2405 29.4043 17.2106 29.3973 17.173 29.3973H17.1055C17.0836 29.3904 17.0607 29.3877 17.038 29.3894C17.0004 29.3894 16.9525 29.3815 16.9174 29.3815L16.8422 29.3736H16.82C16.8058 29.3672 16.7902 29.3645 16.7747 29.3658H16.7593L16.5414 29.343C16.4559 29.3273 16.3705 29.3203 16.2782 29.3045C16.1731 29.2888 16.0902 29.2739 16.0081 29.2582C15.9261 29.2424 15.8654 29.2355 15.797 29.2197H15.7902L15.6697 29.197L15.5569 29.1734L15.4586 29.1506C15.4558 29.1476 15.4523 29.1453 15.4484 29.1439C15.4445 29.1425 15.4404 29.1421 15.4364 29.1427C15.4335 29.1398 15.43 29.1375 15.4262 29.1361C15.4223 29.1348 15.4182 29.1343 15.4141 29.1349L15.3688 29.1279C15.3659 29.125 15.3624 29.1227 15.3586 29.1214C15.3548 29.12 15.3507 29.1195 15.3466 29.12C15.3373 29.1145 15.3266 29.1118 15.3159 29.1121C15.3159 29.1043 15.309 29.1043 15.3013 29.1043L15.2338 29.0894C15.2107 29.0815 15.1962 29.0815 15.1731 29.0736L15.1509 29.0658L15.0603 29.043C15.0227 29.0273 14.9851 29.0194 14.9407 29.0045L14.8877 28.9888H14.88C14.8723 28.9809 14.8723 28.9809 14.8655 28.9809L14.7903 28.9582H14.7749C14.7074 28.9355 14.6398 28.9197 14.5715 28.897H14.5646C14.504 28.8812 14.4441 28.8585 14.3766 28.8349C14.339 28.82 14.3014 28.8043 14.2561 28.7894H14.2484C14.2185 28.7736 14.1809 28.7658 14.1433 28.7509L14.1134 28.743C14.0893 28.7304 14.0641 28.7202 14.0382 28.7124L13.9852 28.6967C13.9553 28.6888 13.9254 28.6739 13.8997 28.6661L13.8544 28.6503L13.6288 28.5585C13.6011 28.5439 13.5726 28.531 13.5433 28.52L13.4681 28.4894C13.4365 28.4721 13.404 28.4566 13.3707 28.443L13.2348 28.3809C13.228 28.3809 13.228 28.3739 13.2203 28.3739C13.175 28.3582 13.1348 28.3355 13.0998 28.3197L13.0844 28.3118L12.9989 28.2655C12.8784 28.2043 12.7733 28.15 12.6682 28.0906C12.6405 28.0736 12.612 28.0581 12.5827 28.0442H12.575C12.5713 28.0398 12.5661 28.037 12.5605 28.0363C12.4853 27.9987 12.4178 27.9602 12.3426 27.9139L12.2366 27.8518C12.1845 27.8212 12.1392 27.7906 12.0939 27.7599C12.0486 27.7293 11.9964 27.6978 11.9511 27.6672C11.9058 27.6366 11.8759 27.6139 11.8306 27.5798C11.8238 27.5798 11.8238 27.5719 11.8161 27.5719L11.8084 27.564C11.7708 27.5413 11.7332 27.5098 11.6956 27.4871C11.6879 27.4871 11.6879 27.4792 11.6802 27.4792C11.5905 27.418 11.4999 27.3559 11.4102 27.2868C11.3426 27.2334 11.2674 27.1792 11.1991 27.1258L10.9965 26.964C10.929 26.9098 10.8683 26.8564 10.8085 26.8022L10.7863 26.7795C10.6658 26.6789 10.553 26.5713 10.4248 26.4559C10.388 26.4246 10.3529 26.3913 10.3196 26.3562L10.2521 26.2949C10.2442 26.2826 10.234 26.2719 10.2222 26.2634L10.1171 26.1559C10.0905 26.1235 10.062 26.0928 10.0316 26.064L10.0017 26.0325L9.99402 26.0255L9.91882 25.9486C9.88422 25.9173 9.85167 25.8837 9.82139 25.848L9.81369 25.841C9.79567 25.8158 9.77535 25.7923 9.75302 25.771L9.67866 25.6836C9.66328 25.6678 9.65559 25.6521 9.64106 25.6372C9.50517 25.4833 9.37783 25.3215 9.24963 25.1605C9.21972 25.129 9.1975 25.0906 9.16417 25.0521L9.14195 25.0215C9.12221 25.0002 9.10447 24.977 9.08896 24.9524C9.02914 24.8754 8.96931 24.7906 8.90863 24.7066L8.75138 24.4757C8.74934 24.4757 8.74738 24.4749 8.74594 24.4734C8.7445 24.4719 8.74369 24.4699 8.74369 24.4678L8.6907 24.3908C8.60096 24.2369 8.51037 24.0908 8.42747 23.9535C8.42747 23.9457 8.41978 23.9457 8.41978 23.9378C8.38987 23.8836 8.35226 23.8223 8.32235 23.7629C8.29244 23.7034 8.26253 23.6474 8.23689 23.5932C8.23285 23.5892 8.23015 23.584 8.22919 23.5783C8.19159 23.5013 8.15399 23.4314 8.11638 23.3553C8.10869 23.3317 8.09331 23.3168 8.08647 23.2932L8.0557 23.2398V23.232C8.04117 23.1935 8.0181 23.155 8.00357 23.1165C7.98031 23.077 7.96002 23.0358 7.94289 22.9932C7.90529 22.9057 7.87537 22.8314 7.83777 22.7474C7.79333 22.6468 7.75231 22.5471 7.71043 22.4317C7.69602 22.4016 7.68346 22.3706 7.67283 22.339L7.64291 22.2515C7.61215 22.1588 7.58223 22.0766 7.55232 21.9891C7.50703 21.85 7.46173 21.704 7.41729 21.5579C7.4096 21.5273 7.39421 21.4888 7.38738 21.4503C7.37199 21.3891 7.34977 21.327 7.33439 21.2579C7.33153 21.2549 7.32936 21.2514 7.32803 21.2474C7.3267 21.2435 7.32625 21.2393 7.3267 21.2352L7.26687 20.9964C7.22927 20.8425 7.19166 20.6806 7.16175 20.5197C7.14637 20.4497 7.13868 20.3885 7.12415 20.3273V20.3116C7.10107 20.2118 7.08654 20.1191 7.07116 20.0194V20.0037C7.06347 19.9731 7.06347 19.9425 7.05578 19.9162L7.04894 19.8777C7.04894 19.8541 7.04125 19.8392 7.04125 19.8156L7.01817 19.6407C7.01133 19.5795 7.00364 19.5253 6.99595 19.4658C6.99595 19.4352 6.98826 19.4116 6.98826 19.3783V19.3477C6.98826 19.3092 6.98057 19.2707 6.98057 19.2323C6.97499 19.2175 6.97265 19.2017 6.97373 19.1859L6.95835 18.9401V18.8474C6.95835 18.7599 6.95066 18.6856 6.95066 18.6016V17.8626C6.95322 17.7804 6.95322 17.7034 6.96091 17.6185ZM15.9799 3.89378C15.8449 3.955 15.7098 4.02497 15.5816 4.0862C15.7235 4.0171 15.8474 3.955 15.9799 3.89378ZM14.9543 4.42468C14.8039 4.51214 14.6458 4.59961 14.4954 4.69407C14.6441 4.60136 14.7945 4.50952 14.9543 4.42468ZM9.56243 9.46345C9.50175 9.55616 9.44962 9.63838 9.3915 9.73284C9.44193 9.641 9.50175 9.54829 9.56243 9.46345Z" fill="white" />
		<path d="M27.2745 14.3878C26.8071 13.2012 26.129 12.1135 25.2746 11.1796C25.2581 11.1687 25.2429 11.1558 25.2293 11.1411C25.1994 11.1105 25.1695 11.072 25.1396 11.0405C25.1319 11.0335 25.1165 11.0178 25.102 11.002C25.102 11.0011 25.1018 11.0001 25.1014 10.9992C25.101 10.9982 25.1004 10.9974 25.0997 10.9968C25.099 10.9961 25.0981 10.9956 25.0972 10.9953C25.0962 10.995 25.0953 10.9949 25.0943 10.9951C25.1541 11.0563 25.2148 11.1175 25.2746 11.1796C25.0413 10.9251 24.8011 10.6872 24.5456 10.4563C24.5379 10.4563 24.5379 10.4563 24.5302 10.4484C22.8453 8.9343 20.7166 8.03594 18.4785 7.89447H18.3802C18.36 7.89573 18.3397 7.89306 18.3204 7.8866H17.5307C14.8964 7.97327 12.398 9.10425 10.5632 11.0407C8.72844 12.9772 7.70078 15.5676 7.69727 18.265C7.69727 23.9886 12.2533 28.6504 17.847 28.6504C20.4238 28.6529 22.9044 27.6487 24.7823 25.8429C24.8013 25.8294 24.8188 25.8139 24.8345 25.7965C24.8664 25.7693 24.8967 25.7401 24.9251 25.709L25.0225 25.6093L25.0823 25.5481L25.1199 25.5096C25.1131 25.5166 25.1131 25.5096 25.1199 25.5096L25.1276 25.5018L25.1353 25.4939L25.143 25.486C25.1487 25.4746 25.1562 25.4643 25.1652 25.4554L25.2327 25.3863L25.2481 25.3706C27.0195 23.4446 28.0062 20.8995 28.0069 18.2545C28.0092 16.9293 27.7605 15.6161 27.2745 14.3878ZM25.102 10.9872L25.0644 10.9487C25.0789 10.9636 25.0866 10.9793 25.102 10.9872ZM24.7037 10.6023L24.7106 10.6102C24.7352 10.6283 24.7581 10.6488 24.7789 10.6714L24.7858 10.6793C24.8234 10.7178 24.861 10.7484 24.8986 10.7869L24.9063 10.7948L24.9216 10.8105L24.9285 10.8175L24.9362 10.8254L24.9815 10.8717L24.9892 10.8796C24.9707 10.8596 24.9503 10.8415 24.9285 10.8254H24.9216V10.8175L24.5798 10.4948C24.6285 10.5332 24.6661 10.5717 24.7037 10.6023ZM17.847 26.9274C16.1714 26.9271 14.5336 26.4183 13.1406 25.4654C11.7476 24.5124 10.662 23.1582 10.021 21.5739C9.38007 19.9896 9.21254 18.2463 9.53963 16.5646C9.86671 14.8828 10.6737 13.3381 11.8586 12.1257C13.0435 10.9133 14.5531 10.0878 16.1965 9.75336C17.8398 9.41896 19.5432 9.59076 21.0912 10.247C22.6391 10.9033 23.9622 12.0146 24.893 13.4404C25.8239 14.8662 26.3207 16.5424 26.3207 18.2572C26.3168 20.5557 25.4228 22.759 23.8344 24.3842C22.2461 26.0094 20.093 26.9239 17.847 26.9274Z" fill="white" />
		<path d="M38.4055 8.74197V13.9828H44.8639V16.9522H38.4055V24.2274H35.2168V5.77258H47.3424V8.74197H38.4055Z" fill="white" />
		<path d="M58.9755 17.2461C60.3315 16.8723 61.1597 15.9633 61.46 14.5189C61.5493 14.07 61.5925 13.6127 61.589 13.1545V10.1318C61.589 7.22564 60.1689 5.77258 57.3286 5.77258H48.6523V24.2274H51.8401V17.4875H55.6561L59.0012 24.2274H61.7198L62.1112 23.5321L58.9755 17.2461ZM58.4003 13.3417C58.4003 14.1265 58.0169 14.5189 57.25 14.5189H51.8401V8.74634H57.25C58.0169 8.74634 58.4003 9.12943 58.4003 9.89562V13.3417Z" fill="white" />
		<path d="M73.4673 5.77258H68.5018L62.9355 23.5854L63.3535 24.2274H65.9926L67.2472 20.1621H74.6937L75.9243 24.2274H78.6156L79.007 23.5854L73.4673 5.77258ZM68.136 17.1936L70.723 8.74634H71.2196L73.4117 15.844L73.8296 17.1936H68.136Z" fill="white" />
		<path d="M94.2197 23.5583L93.9061 24.2274H90.9789L85.4648 15.7487L83.2171 18.209V24.2274H80.0293V5.77258H83.2171V13.8498L90.2995 5.77258H93.2788L93.5924 6.4408L87.5287 13.3679L94.2197 23.5583Z" fill="white" />
		<path d="M109.313 5.77258V8.74197H103.643V24.2274H100.428V8.74197H94.7578V5.77258H109.313Z" fill="white" />
	</g>
	<defs>
		<clipPath id="clip0_189_1046">
			<rect width="109.315" height="30" fill="white" />
		</clipPath>
	</defs>
</svg>
